<?xml version="1.0" encoding="UTF-8" standalone="no"?>
<!DOCTYPE svg PUBLIC "-//W3C//DTD SVG 1.1//EN" "http://www.w3.org/Graphics/SVG/1.1/DTD/svg11.dtd">
<svg width="100%" height="100%" viewBox="0 0 24 24" version="1.1" xmlns="http://www.w3.org/2000/svg" xmlns:xlink="http://www.w3.org/1999/xlink" xml:space="preserve" xmlns:serif="http://www.serif.com/" style="fill-rule:evenodd;clip-rule:evenodd;stroke-linejoin:round;stroke-miterlimit:2;">
    <g transform="matrix(1.2,0,0,0.8,4.8,5.2)">
        <path d="M11,4L11,8C11,9.656 10.104,11 9,11L3,11C1.896,11 1,9.656 1,8L1,4C1,2.344 1.896,1 3,1L9,1C10.104,1 11,2.344 11,4Z"/>
    </g>
    <g transform="matrix(1.8,0,0,1.8,1.2,1.2)">
        <path d="M11.579,3.5L11.579,8.5C11.579,10.199 10.199,11.579 8.5,11.579L3.5,11.579C1.801,11.579 0.421,10.199 0.421,8.5L0.421,3.5C0.421,1.801 1.801,0.421 3.5,0.421L8.5,0.421C10.199,0.421 11.579,1.801 11.579,3.5ZM10.421,3.5C10.421,2.44 9.56,1.579 8.5,1.579L3.5,1.579C2.44,1.579 1.579,2.44 1.579,3.5L1.579,8.5C1.579,9.56 2.44,10.421 3.5,10.421L8.5,10.421C9.56,10.421 10.421,9.56 10.421,8.5L10.421,3.5Z"/>
    </g>
    <path d="M7,17L17,17" style="fill:none;"/>
    <path d="M7,18.042C6.425,18.042 5.958,17.575 5.958,17C5.958,16.425 6.425,15.958 7,15.958L17,15.958C17.575,15.958 18.042,16.425 18.042,17C18.042,17.575 17.575,18.042 17,18.042L7,18.042Z"/>
</svg>
