<?xml version="1.0" encoding="UTF-8" standalone="no"?>
<!DOCTYPE svg PUBLIC "-//W3C//DTD SVG 1.1//EN" "http://www.w3.org/Graphics/SVG/1.1/DTD/svg11.dtd">
<svg width="100%" height="100%" viewBox="0 0 24 24" version="1.1" xmlns="http://www.w3.org/2000/svg" xmlns:xlink="http://www.w3.org/1999/xlink" xml:space="preserve" xmlns:serif="http://www.serif.com/" style="fill-rule:evenodd;clip-rule:evenodd;stroke-linejoin:round;stroke-miterlimit:2;">
    <path d="M2.958,7C2.958,4.217 5.217,1.958 8,1.958L16,1.958C18.783,1.958 21.042,4.217 21.042,7C21.042,7.575 20.575,8.042 20,8.042C17.815,8.042 16.042,9.815 16.042,12C16.042,14.185 17.815,15.958 20,15.958C20.575,15.958 21.042,16.425 21.042,17C21.042,19.783 18.783,22.042 16,22.042L8,22.042C5.217,22.042 2.958,19.783 2.958,17C2.958,16.425 3.425,15.958 4,15.958C6.185,15.958 7.958,14.185 7.958,12C7.958,9.815 6.185,8.042 4,8.042C3.425,8.042 2.958,7.575 2.958,7ZM5.189,6.076C7.955,6.629 10.042,9.073 10.042,12C10.042,14.927 7.955,17.371 5.189,17.924C5.578,19.105 6.69,19.958 8,19.958L16,19.958C17.31,19.958 18.422,19.105 18.811,17.924C16.045,17.371 13.958,14.927 13.958,12C13.958,9.073 16.045,6.629 18.811,6.076C18.422,4.895 17.31,4.042 16,4.042L8,4.042C6.69,4.042 5.578,4.895 5.189,6.076Z"/>
    <g transform="matrix(1,0,0,1,-7,1)">
        <circle cx="11" cy="11" r="2"/>
    </g>
    <g transform="matrix(1,0,0,1,9,1)">
        <circle cx="11" cy="11" r="2"/>
    </g>
</svg>
