<?xml version="1.0" encoding="UTF-8" standalone="no"?>
<!DOCTYPE svg PUBLIC "-//W3C//DTD SVG 1.1//EN" "http://www.w3.org/Graphics/SVG/1.1/DTD/svg11.dtd">
<svg width="100%" height="100%" viewBox="0 0 24 24" version="1.1" xmlns="http://www.w3.org/2000/svg" xmlns:xlink="http://www.w3.org/1999/xlink" xml:space="preserve" xmlns:serif="http://www.serif.com/" style="fill-rule:evenodd;clip-rule:evenodd;stroke-linejoin:round;stroke-miterlimit:2;">
    <g transform="matrix(1.8,0,0,1.8,1.2,12.2)">
        <path d="M1,4.889L1,3.5C1,2.12 2.12,1 3.5,1L8.5,1C9.88,1 11,2.12 11,3.5L11,4.889" style="fill:white;"/>
    </g>
    <g transform="matrix(1.8,0,0,1.8,1.2,12.2)">
        <path d="M1.579,4.889C1.579,5.208 1.319,5.468 1,5.468C0.681,5.468 0.421,5.208 0.421,4.889L0.421,3.5C0.421,1.801 1.801,0.421 3.5,0.421L8.5,0.421C10.199,0.421 11.579,1.801 11.579,3.5L11.579,4.889C11.579,5.208 11.319,5.468 11,5.468C10.681,5.468 10.421,5.208 10.421,4.889L10.421,3.5C10.421,2.44 9.56,1.579 8.5,1.579L3.5,1.579C2.44,1.579 1.579,2.44 1.579,3.5L1.579,4.889Z"/>
    </g>
    <g transform="matrix(-1.8,-0,0,-1.8,22.8,11.8)">
        <path d="M1,4.889L1,3.5C1,2.12 2.12,1 3.5,1L8.5,1C9.88,1 11,2.12 11,3.5L11,4.889" style="fill:white;"/>
    </g>
    <g transform="matrix(-1.8,-0,0,-1.8,22.8,11.8)">
        <path d="M1.579,4.889C1.579,5.208 1.319,5.468 1,5.468C0.681,5.468 0.421,5.208 0.421,4.889L0.421,3.5C0.421,1.801 1.801,0.421 3.5,0.421L8.5,0.421C10.199,0.421 11.579,1.801 11.579,3.5L11.579,4.889C11.579,5.208 11.319,5.468 11,5.468C10.681,5.468 10.421,5.208 10.421,4.889L10.421,3.5C10.421,2.44 9.56,1.579 8.5,1.579L3.5,1.579C2.44,1.579 1.579,2.44 1.579,3.5L1.579,4.889Z"/>
    </g>
</svg>
