<?xml version="1.0" encoding="UTF-8" standalone="no"?>
<!DOCTYPE svg PUBLIC "-//W3C//DTD SVG 1.1//EN" "http://www.w3.org/Graphics/SVG/1.1/DTD/svg11.dtd">
<svg width="100%" height="100%" viewBox="0 0 24 24" version="1.1" xmlns="http://www.w3.org/2000/svg" xmlns:xlink="http://www.w3.org/1999/xlink" xml:space="preserve" xmlns:serif="http://www.serif.com/" style="fill-rule:evenodd;clip-rule:evenodd;stroke-linejoin:round;stroke-miterlimit:2;">
    <g transform="matrix(0.6,0,0,0.6,5.4,5.4)">
        <path d="M11,4L11,8C11,9.656 9.656,11 8,11L4,11C2.344,11 1,9.656 1,8L1,4C1,2.344 2.344,1 4,1L8,1C9.656,1 11,2.344 11,4Z"/>
    </g>
    <g transform="matrix(1.8,0,0,1.2,1.2,1.8)">
        <path d="M11.579,3.5L11.579,8.5C11.579,10.359 10.573,11.868 9.333,11.868L2.667,11.868C1.427,11.868 0.421,10.359 0.421,8.5L0.421,3.5C0.421,1.641 1.427,0.132 2.667,0.132L9.333,0.132C10.573,0.132 11.579,1.641 11.579,3.5ZM10.421,3.5C10.421,2.599 9.934,1.868 9.333,1.868L2.667,1.868C2.066,1.868 1.579,2.599 1.579,3.5L1.579,8.5C1.579,9.401 2.066,10.132 2.667,10.132L9.333,10.132C9.934,10.132 10.421,9.401 10.421,8.5L10.421,3.5Z"/>
    </g>
    <g transform="matrix(1,0,0,1,8,-10)">
        <path d="M7,17L9,17" style="fill:none;"/>
    </g>
    <g transform="matrix(1,0,0,1,8,-10)">
        <path d="M7,18.042C6.425,18.042 5.958,17.575 5.958,17C5.958,16.425 6.425,15.958 7,15.958L9,15.958C9.575,15.958 10.042,16.425 10.042,17C10.042,17.575 9.575,18.042 9,18.042L7,18.042Z"/>
    </g>
    <g transform="matrix(1,0,0,1,8,-6)">
        <path d="M7,17L9,17" style="fill:none;"/>
    </g>
    <g transform="matrix(1,0,0,1,8,-6)">
        <path d="M7,18.042C6.425,18.042 5.958,17.575 5.958,17C5.958,16.425 6.425,15.958 7,15.958L9,15.958C9.575,15.958 10.042,16.425 10.042,17C10.042,17.575 9.575,18.042 9,18.042L7,18.042Z"/>
    </g>
    <g transform="matrix(1.8,0,0,1.2,1.2,17.8)">
        <path d="M1.641,2.956C1.534,3.408 1.203,3.645 0.902,3.485C0.601,3.325 0.443,2.829 0.549,2.377C0.858,1.07 1.69,0.132 2.667,0.132L9.333,0.132C10.31,0.132 11.142,1.07 11.451,2.377C11.557,2.829 11.399,3.325 11.098,3.485C10.797,3.645 10.466,3.408 10.359,2.956C10.21,2.323 9.807,1.868 9.333,1.868L2.667,1.868C2.193,1.868 1.79,2.323 1.641,2.956Z"/>
    </g>
</svg>
