<?xml version="1.0" encoding="UTF-8" standalone="no"?>
<!DOCTYPE svg PUBLIC "-//W3C//DTD SVG 1.1//EN" "http://www.w3.org/Graphics/SVG/1.1/DTD/svg11.dtd">
<svg width="100%" height="100%" viewBox="0 0 24 24" version="1.1" xmlns="http://www.w3.org/2000/svg" xmlns:xlink="http://www.w3.org/1999/xlink" xml:space="preserve" xmlns:serif="http://www.serif.com/" style="fill-rule:evenodd;clip-rule:evenodd;stroke-linejoin:round;stroke-miterlimit:2;">
    <g transform="matrix(0.9,0,0,0.9,12.1,1.1)">
        <path d="M11,4L11,8C11,9.656 9.656,11 8,11L4,11C2.344,11 1,9.656 1,8L1,4C1,2.344 2.344,1 4,1L8,1C9.656,1 11,2.344 11,4Z"/>
    </g>
    <g transform="matrix(0.9,0,0,0.9,1.1,12.1)">
        <path d="M11,4L11,8C11,9.656 9.656,11 8,11L4,11C2.344,11 1,9.656 1,8L1,4C1,2.344 2.344,1 4,1L8,1C9.656,1 11,2.344 11,4Z"/>
    </g>
    <g transform="matrix(0.7,0,0,0.7,2.3,2.3)">
        <path d="M12.488,3.5L12.488,8.5C12.488,10.701 10.701,12.488 8.5,12.488L3.5,12.488C1.299,12.488 -0.488,10.701 -0.488,8.5L-0.488,3.5C-0.488,1.299 1.299,-0.488 3.5,-0.488L8.5,-0.488C10.701,-0.488 12.488,1.299 12.488,3.5ZM9.512,3.5C9.512,2.942 9.058,2.488 8.5,2.488L3.5,2.488C2.942,2.488 2.488,2.942 2.488,3.5L2.488,8.5C2.488,9.058 2.942,9.512 3.5,9.512L8.5,9.512C9.058,9.512 9.512,9.058 9.512,8.5L9.512,3.5Z"/>
    </g>
    <g transform="matrix(0.7,0,0,0.7,13.3,13.3)">
        <path d="M12.488,3.5L12.488,8.5C12.488,10.701 10.701,12.488 8.5,12.488L3.5,12.488C1.299,12.488 -0.488,10.701 -0.488,8.5L-0.488,3.5C-0.488,1.299 1.299,-0.488 3.5,-0.488L8.5,-0.488C10.701,-0.488 12.488,1.299 12.488,3.5ZM9.512,3.5C9.512,2.942 9.058,2.488 8.5,2.488L3.5,2.488C2.942,2.488 2.488,2.942 2.488,3.5L2.488,8.5C2.488,9.058 2.942,9.512 3.5,9.512L8.5,9.512C9.058,9.512 9.512,9.058 9.512,8.5L9.512,3.5Z"/>
    </g>
</svg>
